<mxfile host="65bd71144e">
    <diagram id="EfPt7qEW66p7dg55XCZY" name="Page-1">
        <mxGraphModel dx="777" dy="647" grid="1" gridSize="10" guides="1" tooltips="1" connect="1" arrows="1" fold="1" page="1" pageScale="1" pageWidth="827" pageHeight="1169" background="#94ccba" math="0" shadow="0">
            <root>
                <mxCell id="0"/>
                <mxCell id="1" parent="0"/>
                <mxCell id="2" value="Client" style="ellipse;whiteSpace=wrap;html=1;aspect=fixed;fillColor=#354540;strokeColor=#d6b8b8;gradientColor=none;gradientDirection=east;fontColor=default;" parent="1" vertex="1">
                    <mxGeometry x="80" y="40" width="80" height="80" as="geometry"/>
                </mxCell>
                <mxCell id="9" value="Server" style="ellipse;whiteSpace=wrap;html=1;aspect=fixed;fillColor=#354540;gradientDirection=east;gradientColor=none;fontColor=default;" parent="1" vertex="1">
                    <mxGeometry x="680" y="40" width="80" height="80" as="geometry"/>
                </mxCell>
                <mxCell id="14" value="" style="endArrow=none;dashed=1;html=1;dashPattern=1 3;strokeWidth=2;entryX=0.5;entryY=1;entryDx=0;entryDy=0;strokeColor=#000000;" parent="1" target="2" edge="1">
                    <mxGeometry width="50" height="50" relative="1" as="geometry">
                        <mxPoint x="120" y="600" as="sourcePoint"/>
                        <mxPoint x="570" y="290" as="targetPoint"/>
                    </mxGeometry>
                </mxCell>
                <mxCell id="15" value="" style="endArrow=none;dashed=1;html=1;dashPattern=1 3;strokeWidth=4;entryX=0.5;entryY=1;entryDx=0;entryDy=0;strokeColor=#000000;" parent="1" edge="1">
                    <mxGeometry width="50" height="50" relative="1" as="geometry">
                        <mxPoint x="719.5" y="600" as="sourcePoint"/>
                        <mxPoint x="719.5" y="120" as="targetPoint"/>
                    </mxGeometry>
                </mxCell>
                <mxCell id="16" value="" style="endArrow=classic;html=1;strokeWidth=2;strokeColor=#000000;" parent="1" edge="1">
                    <mxGeometry width="50" height="50" relative="1" as="geometry">
                        <mxPoint x="120" y="140" as="sourcePoint"/>
                        <mxPoint x="720" y="200" as="targetPoint"/>
                    </mxGeometry>
                </mxCell>
                <mxCell id="5" value="Create a public-private key pair and send public key to the server" style="rounded=1;whiteSpace=wrap;html=1;fillColor=#354540;strokeColor=#d6b8b8;gradientColor=none;gradientDirection=east;fontColor=default;" parent="1" vertex="1">
                    <mxGeometry x="330" y="130" width="160" height="60" as="geometry"/>
                </mxCell>
                <mxCell id="17" value="" style="endArrow=classic;html=1;startArrow=none;strokeWidth=2;strokeColor=#000000;" parent="1" source="12" edge="1">
                    <mxGeometry width="50" height="50" relative="1" as="geometry">
                        <mxPoint x="720" y="340" as="sourcePoint"/>
                        <mxPoint x="120" y="430" as="targetPoint"/>
                    </mxGeometry>
                </mxCell>
                <mxCell id="20" value="" style="endArrow=classic;html=1;strokeWidth=2;strokeColor=#000000;" parent="1" edge="1">
                    <mxGeometry width="50" height="50" relative="1" as="geometry">
                        <mxPoint x="719" y="200" as="sourcePoint"/>
                        <mxPoint x="719" y="340" as="targetPoint"/>
                    </mxGeometry>
                </mxCell>
                <mxCell id="19" value="&lt;span style=&quot;font-family: Helvetica; font-size: 12px; font-style: normal; font-variant-ligatures: normal; font-variant-caps: normal; letter-spacing: normal; orphans: 2; text-align: center; text-indent: 0px; text-transform: none; widows: 2; word-spacing: 0px; -webkit-text-stroke-width: 0px; text-decoration-thickness: initial; text-decoration-style: initial; text-decoration-color: initial; float: none; display: inline !important;&quot;&gt;Creates a public-private key pair, stores its private key and client's public key as a part of the user session.&lt;/span&gt;" style="rounded=1;whiteSpace=wrap;html=1;strokeWidth=1;fillColor=#354540;strokeColor=#d6b8b8;gradientColor=none;gradientDirection=east;fontStyle=0;labelBackgroundColor=none;fontColor=default;" parent="1" vertex="1">
                    <mxGeometry x="600" y="230" width="210" height="70" as="geometry"/>
                </mxCell>
                <mxCell id="21" value="" style="endArrow=none;html=1;strokeWidth=2;strokeColor=#000000;" parent="1" target="12" edge="1">
                    <mxGeometry width="50" height="50" relative="1" as="geometry">
                        <mxPoint x="720" y="340" as="sourcePoint"/>
                        <mxPoint x="120" y="430" as="targetPoint"/>
                    </mxGeometry>
                </mxCell>
                <mxCell id="12" value="Server sends its own public key in response" style="rounded=1;whiteSpace=wrap;html=1;fillColor=#354540;strokeColor=#d6b8b8;gradientColor=none;gradientDirection=east;fontColor=default;" parent="1" vertex="1">
                    <mxGeometry x="350" y="360" width="160" height="60" as="geometry"/>
                </mxCell>
                <mxCell id="22" value="" style="endArrow=classic;html=1;strokeWidth=2;strokeColor=#000000;" parent="1" edge="1">
                    <mxGeometry width="50" height="50" relative="1" as="geometry">
                        <mxPoint x="120" y="430" as="sourcePoint"/>
                        <mxPoint x="120" y="570" as="targetPoint"/>
                    </mxGeometry>
                </mxCell>
                <mxCell id="23" value="Client saves its own private key and server's public key in memory for further communication" style="rounded=1;whiteSpace=wrap;html=1;strokeWidth=1;fillColor=#354540;strokeColor=#d6b8b8;gradientColor=none;gradientDirection=east;fontColor=default;" parent="1" vertex="1">
                    <mxGeometry x="48.5" y="460" width="144.5" height="80" as="geometry"/>
                </mxCell>
                <mxCell id="24" value="Now, the client and server can talk in a secure way" style="rounded=0;whiteSpace=wrap;html=1;strokeWidth=1;fillColor=#354540;gradientColor=none;fontColor=default;" parent="1" vertex="1">
                    <mxGeometry x="160" y="590" width="530" height="30" as="geometry"/>
                </mxCell>
            </root>
        </mxGraphModel>
    </diagram>
</mxfile>
